PathFileType	4	(X/Y/Z)	D:\Long Term Storage\D'Arcy Smith\Coord20.trc
DataRate	CameraRate	NumFrames	NumMarkers	Units	OrigDataRate	OrigDataStartFrame	OrigNumFrames
120.00	120.00	      51	4	mm	120.00	605	      4839
Frame#	Time	M1			M2			M3			M4			
		X1	Y1	Z1	X2	Y2	Z2	X3	Y3	Z3	X4	Y4	Z4	

605	5.033	606.24854	415.76135	552.23889	887.62952	361.76288	279.56241							
606	5.042	602.36615	429.86523	570.72638	887.73401	364.59119	257.14001							
607	5.050	598.54016	444.16211	587.21527	888.43457	368.26120	235.72472							
608	5.058	594.86420	458.72827	601.91443	889.39148	372.94464	214.65944							
609	5.067	591.26953	472.20016	613.73279	890.75879	378.90009	193.70621							
610	5.075	588.14697	484.40945	623.35577	892.39868	385.51706	173.88034							
611	5.083	585.61609	494.90240	630.53296	894.77716	393.60388	152.23323							
612	5.092	583.77252	502.71295	635.71283	896.72333	401.73975	134.17715							
613	5.100	582.68640	508.13626	638.58337	899.05688	410.84659	116.78982							
614	5.108	582.52222	510.85657	639.53680	901.42975	420.35654	100.37990							
615	5.117	583.38782	510.24310	638.32758	903.86377	430.65735	84.85121							
616	5.125	585.33643	507.03253	635.15283	906.26532	440.87289	70.56952							
617	5.133	587.83337	501.14554	630.13330	908.50781	451.04749	57.31834							
618	5.142	590.77612	493.60629	623.35565	910.83221	461.02631	45.36034							
619	5.150	594.17395	484.40900	614.54138	912.89404	470.60574	34.67295							
620	5.158	597.53339	474.53192	603.95233	914.74243	479.82584	25.05535							
621	5.167	600.84552	463.87234	591.78809	916.09015	488.21494	16.63556							
622	5.175	604.20026	452.84882	577.49664	917.50104	496.19138	9.52019							
623	5.183	607.39862	441.86789	561.66974	918.49945	503.23782	3.54927							
624	5.192	610.34344	431.26016	543.85614	919.13806	509.47128	-1.31065							
625	5.200	613.09644	421.07315	524.57800	919.25958	514.52307	-4.84862							
626	5.208	615.34412	411.61902	503.66141	919.02222	518.59601	-7.25842							
627	5.217	617.24829	403.06235	481.09708	918.46088	521.24286	-8.72676							
628	5.225	618.69214	395.89029	456.23862	917.37665	522.78442	-8.99306							
629	5.233	619.53058	389.67703	431.54016	916.06323	523.15155	-8.35355							
630	5.242	619.95801	384.79211	405.33136	914.40094	522.50299	-6.85550							
631	5.250	619.81696	381.75601	378.43726	912.27039	520.63843	-4.40010							
632	5.258	619.43402	380.38565	351.15454	910.09821	517.99786	-1.38453							
633	5.267	618.49286	380.62912	323.11737	907.43494	514.36853	2.71470							
634	5.275	616.63843	383.07697	294.84689	904.27130	510.26971	6.92644							
635	5.283	614.59680	386.95880	266.92883	901.32428	505.14832	12.07829							
636	5.292	612.33472	392.55560	239.63576	898.30225	499.26373	17.97817							
637	5.300	609.69220	400.77234	212.15648	895.44043	493.02603	24.33440							
638	5.308	606.11163	410.13208	186.02234	892.39966	486.21674	31.41498							
639	5.317	602.26154	421.04553	160.71204	889.62238	479.22256	39.08506							
640	5.325	598.12231	433.27539	136.54657	886.85260	471.76752	47.35456							
641	5.333	593.68292	447.23840	113.45355	884.39490	464.29535	56.44193							
642	5.342	589.14563	461.29248	92.12206	882.08691	456.58810	66.06329							
643	5.350	584.58411	477.16418	71.77272	879.95398	448.71356	76.34961							
644	5.358	580.07056	493.01083	53.33868	878.14435	440.89481	87.50531							
645	5.367	575.60486	508.84943	36.84745	876.64569	432.96567	98.82037							
646	5.375	571.26038	525.03271	21.98207	875.92438	424.17758	112.18151							
647	5.383	567.25330	539.69635	9.71792	874.90686	416.29669	125.30549							
648	5.392	563.57953	553.80054	-0.67494	874.46655	408.72626	138.85442							
649	5.400	560.22180	566.45819	-9.30276	874.30115	401.19559	153.19818							
650	5.408	557.66663	577.41821	-16.01549	874.54474	393.98776	168.02422							
651	5.417	555.72101	586.67719	-21.24967	875.19629	387.07892	183.43230							
652	5.425	554.21295	594.28888	-24.97050	876.17474	380.51495	199.48943							
653	5.433	553.43030	599.31854	-26.99438	877.61249	374.60083	215.81973							
654	5.442	553.43988	601.48724	-27.46943	879.61383	368.73367	234.95300							
655	5.450	554.28833	602.44574	-27.37008	881.94720	363.60938	253.19037							
